<svg xmlns="http://www.w3.org/2000/svg" width="120" height="120"><g transform="translate(0 -932.362)"><circle cx="60" cy="992.362" r="60" fill="#ef4c45" fill-rule="evenodd"/><path fill="#de321e" d="M119.287 1001.09a60 60 0 0 0 .348-2.304L87.023 971.42c-.033-.028-.072-.042-.109-.063-.025-.014-.046-.032-.072-.043a.671.671 0 0 0-.256-.053c-.5 0-.813.313-.813.813 0 .108.034.217.086.318.016.03.04.054.059.082a.94.94 0 0 0 .15.184c.01.009.015.022.026.031l2.9 2.434c-.011.046-.033.09-.033.138 0 .13.029.244.076.346.019.04.05.068.074.104.038.054.073.111.121.154.005.004.007.011.012.016l30.043 25.209zm-.36 2.374a60 60 0 0 0 .34-2.248l-35.476-29.768c-.035-.03-.08-.047-.121-.07-.027-.016-.05-.035-.08-.047a.803.803 0 0 0-1.13.744c0 .108.035.217.087.318.015.03.04.054.058.082a.94.94 0 0 0 .15.184c.01.009.016.022.026.031l3.002 2.52c-.001.018-.01.034-.01.052 0 .13.03.244.077.346.018.04.05.068.074.104.038.054.072.111.12.154.006.004.008.011.013.016l32.87 27.582zm-34.425 43.586a60 60 0 0 0 2.713-1.215 60 60 0 0 0 5.203-2.985 60 60 0 0 0 4.879-3.488 60 60 0 0 0 4.506-3.959 60 60 0 0 0 4.088-4.389 60 60 0 0 0 3.629-4.773 60 60 0 0 0 3.134-5.113 60 60 0 0 0 2.61-5.4 60 60 0 0 0 2.056-5.636 60 60 0 0 0 1.485-5.81 60 60 0 0 0 .097-.652L80.55 971.448c-.036-.03-.076-.049-.115-.072-.026-.016-.05-.035-.077-.047a.657.657 0 0 0-.271-.067c-.4 0-.813.413-.813.813 0 .108.034.217.086.318.016.03.04.054.059.082a.94.94 0 0 0 .15.184c.01.009.015.022.026.031l2.916 2.447a.817.817 0 0 0-.05.252c0 .126.028.237.073.334.019.04.05.066.074.1.037.052.068.108.116.148l.004.004 3.058 2.565.002.004v.005l-8.435-7.078c-.049-.04-.11-.067-.168-.097-.026-.013-.046-.03-.073-.041a.899.899 0 0 0-.338-.07c-.4 0-.812.412-.812.812 0 .108.034.217.086.318.015.03.04.054.058.082a.94.94 0 0 0 .15.184c.01.009.016.022.026.031l3.03 2.543c-.014.052-.038.104-.038.156 0 .126.027.237.073.334.018.04.05.066.074.1.036.052.068.108.115.148l.004.004 2.932 2.46c0 .007-.004.015-.004.023 0 .004-.004.009-.004.013l-8.385-7.035c-.032-.027-.074-.043-.111-.064-.025-.014-.046-.032-.072-.043a.765.765 0 0 0-.31-.067.81.81 0 0 0-.812.813c0 .108.034.217.086.318.016.03.04.054.059.082a.94.94 0 0 0 .15.184c.01.009.015.022.026.031l2.926 2.455a.684.684 0 0 0-.06.244c0 .126.028.237.073.334.016.035.046.057.067.088l.023.031-5.238-4.394c-.035-.03-.08-.047-.121-.07-.028-.016-.05-.035-.08-.047a.803.803 0 0 0-.317-.069.743.743 0 0 0-.398.121l-15.28-12.82c-.033-.028-.077-.044-.117-.066-.028-.016-.052-.037-.084-.05a.825.825 0 0 0-.308-.06c-.4 0-.813.282-.813.782 0 .129.029.244.076.345.019.04.05.069.075.104.037.055.072.111.12.154.005.004.007.012.012.016l13.739 11.53h-.004l-19.12-16.044c-.043-.037-.093-.06-.142-.088-.024-.013-.044-.032-.068-.043a.69.69 0 0 0-.282-.068c-.5 0-.812.312-.812.812a.92.92 0 0 0 .06.34c.016.04.047.067.069.102.032.052.06.106.105.146.005.005.007.012.012.016l2.998 2.516c-.008.054-.025.1-.025.162 0 .13.026.246.072.35.017.038.046.065.068.099a.771.771 0 0 0 .125.16c.007.006.01.016.016.021l2.935 2.463c-.003.017-.01.034-.011.051l-8.406-7.053c-.036-.03-.08-.047-.122-.07-.027-.016-.05-.034-.08-.047a.803.803 0 0 0-.316-.068c-.5 0-.781.312-.781.812 0 .13.025.245.07.344.015.033.042.053.06.082.038.058.073.117.124.16.004.004.005.01.01.014l3.025 2.54c-.001.017-.008.03-.008.048 0 .02.007.034.008.053l-8.4-7.051c-.04-.033-.087-.055-.132-.08-.026-.015-.048-.035-.076-.047a.785.785 0 0 0-1.012 1.064c.02.04.05.069.075.104.038.055.072.111.12.154.006.004.008.012.013.016l2.933 2.46c-.008.048-.03.088-.03.14 0 .126.028.238.073.335.025.052.065.09.1.133.03.037.052.08.088.111.002.003.003.006.006.008l2.982 2.502c-.012.063-.03.12-.03.192 0 .13.027.246.073.35.017.038.046.065.068.099a.771.771 0 0 0 .125.16c.007.006.01.016.016.021l3.012 2.528v.002l-8.424-7.069c-.036-.03-.076-.048-.115-.072-.026-.015-.05-.034-.077-.047a.657.657 0 0 0-.271-.066c-.5 0-.813.312-.813.812 0 .127.027.24.073.336.024.052.065.09.1.133.029.037.051.08.087.111l.006.008 2.965 2.489c-.018.066-.043.127-.043.205 0 .129.029.244.076.345.019.04.05.069.074.104.038.055.073.111.121.154.005.004.007.012.012.016l2.957 2.48c-.006.04-.021.079-.021.12a.92.92 0 0 0 .082.376c.016.037.042.064.062.098a.864.864 0 0 0 .143.186c.011.01.017.027.03.037l2.964 2.488v.002c0 .02.007.034.008.053l-8.4-7.051c-.04-.033-.087-.055-.132-.08-.026-.015-.048-.035-.076-.047a.695.695 0 0 0-.275-.063c-.5 0-.813.282-.813.782 0 .129.03.244.077.345.018.04.05.069.074.104.038.055.072.111.12.154.006.004.008.012.013.016l2.937 2.465c-.01.045-.033.089-.033.134a.87.87 0 0 0 .086.37c.018.039.045.067.068.103a.891.891 0 0 0 .14.18c.011.01.016.024.026.033l2.908 2.441c-.001.02-.01.04-.01.06 0 .01.006.02.007.03l-8.377-7.03c-.037-.03-.085-.048-.127-.071-.032-.018-.058-.04-.092-.053a.85.85 0 0 0-.317-.063c-.5 0-.812.282-.812.782a.94.94 0 0 0 .066.351c.014.035.039.06.057.092.035.06.07.12.121.166.008.007.01.019.018.025l3.054 2.563c0 .007-.004.014-.004.021a.87.87 0 0 0 .086.37c.018.039.046.067.069.103a.891.891 0 0 0 .14.18c.01.01.015.024.026.033l2.886 2.422c-.003.027-.02.053-.02.08 0 .108.035.217.087.318.015.03.04.054.058.082a.94.94 0 0 0 .15.184c.01.009.016.022.026.031l2.934 2.461c-.011.05-.02.102-.024.158l-8.4-7.049c-.035-.03-.08-.047-.121-.07-.027-.016-.05-.034-.08-.047a.803.803 0 0 0-1.13.744c0 .136.028.26.071.371.016.041.042.071.063.108a.765.765 0 0 0 .13.18c.012.01.017.028.03.039l3.033 2.545c.008.09.03.179.072.263.016.03.04.054.059.082a.94.94 0 0 0 .15.184c.01.009.015.022.026.031l2.918 2.45c-.025.078-.051.156-.051.247 0 .127.027.24.072.336.025.052.065.09.1.133.029.036.05.08.084.11l-5.393-4.524c-.037-.031-.088-.049-.133-.072-.033-.018-.062-.042-.1-.055a.959.959 0 0 0-.318-.053.81.81 0 0 0-.812.813.82.82 0 0 0 .07.32c.015.035.041.063.06.096.038.062.078.12.132.172.012.012.017.03.03.04l6.417 5.384c-.122.144-.21.313-.21.488 0 .108.035.217.087.318.015.03.04.054.058.082a.94.94 0 0 0 .15.184c.01.009.016.022.026.031l2.938 2.465a.816.816 0 0 0 .031.576c.011.025.033.041.047.065a.73.73 0 0 0 .098.136l-5.346-4.484c-.036-.03-.076-.049-.115-.072-.026-.016-.05-.035-.077-.047a.657.657 0 0 0-.271-.067.81.81 0 0 0-.813.813c0 .108.034.217.086.318.016.03.04.054.059.082a.94.94 0 0 0 .15.184c.01.009.015.022.026.031l2.926 2.455a.684.684 0 0 0-.06.244c0 .126.028.237.073.334.019.04.05.066.074.1.037.052.068.108.116.148l.004.004 2.957 2.483c0 .008-.004.017-.004.025 0 .108.03.21.078.309.016.032.04.057.06.088.04.06.082.117.135.166.01.008.014.02.024.029l3.015 2.53v.001c-.011.053-.031.104-.031.158 0 .008.004.016.004.024l-8.38-7.03c-.043-.036-.095-.057-.146-.084-.026-.013-.048-.032-.076-.042a.772.772 0 0 0-.277-.055.81.81 0 0 0-.74 1.146c.018.04.05.066.074.1.036.052.068.108.115.148l.004.004 2.934 2.461c-.002.016-.012.031-.012.047 0 .104.03.204.078.299.02.039.05.07.076.105a.89.89 0 0 0 .127.15c.008.007.01.018.018.024l2.959 2.483a.834.834 0 0 0-.04.22l-8.355-7.01c-.043-.036-.101-.058-.154-.083-.025-.013-.045-.03-.072-.04a.949.949 0 0 0-.325-.054.81.81 0 0 0-.812.812c0 .128.022.24.06.338.017.042.048.07.07.106.033.05.062.105.106.144l.01.014 3.092 2.594c.012.067.02.134.053.197.02.039.05.07.076.105a.89.89 0 0 0 .127.15c.007.007.01.018.017.024l2.946 2.47a.647.647 0 0 0-.057.233c0 .109.034.215.086.317.015.03.04.053.058.082a.94.94 0 0 0 .15.183c.01.01.016.023.026.032l2.924 2.453-.008.043-8.373-7.026c-.043-.036-.101-.058-.154-.084-.025-.012-.045-.03-.072-.039a.949.949 0 0 0-.325-.054.81.81 0 0 0-.812.812c0 .107.026.21.068.307.015.034.04.06.059.092.036.059.075.115.127.164.01.009.013.022.023.03l3.059 2.567c-.007.041-.024.08-.024.121 0 .109.034.215.086.317.016.03.04.053.059.082a.94.94 0 0 0 .15.183c.01.01.015.023.026.032l2.906 2.44a.69.69 0 0 0-.01.042l-.002.008-8.379-7.03c-.037-.031-.087-.049-.132-.072-.027-.013-.048-.032-.077-.043a.919.919 0 0 0-.314-.052.81.81 0 0 0-.813.812c0 .107.026.21.069.307.014.034.04.06.058.092.037.059.075.115.127.164.01.009.014.022.024.03l2.951 2.477c-.02.07-.041.139-.041.211a.81.81 0 0 0 .07.319c.015.035.04.062.06.095.038.063.078.121.132.172.012.012.017.03.03.041l3.03 2.541c0 .017-.01.034-.01.051 0 .104.03.204.079.299.02.039.05.07.076.105a.89.89 0 0 0 .127.15c.007.007.01.018.017.024l2.94 2.467c-.024.074-.051.148-.051.236 0 .13.029.244.076.346.017.037.047.061.068.094.04.06.077.12.13.166.003.003.005.008.01.012l2.952 2.478c-.004.042-.017.078-.017.123 0 .13.025.243.07.342.013.028.037.045.053.07.039.064.078.129.133.176l.007.01 3.026 2.539c-.001.018-.008.032-.008.05a.94.94 0 0 0 .066.352c.014.034.038.058.055.088a.685.685 0 0 0 .125.172c.007.006.009.016.016.021l2.972 2.495c-.003.03-.015.06-.015.091l.002.006-8.307-6.969-.014-.011c-.049-.041-.107-.067-.162-.1-.041-.024-.078-.058-.12-.076a.784.784 0 0 0-.306-.068.81.81 0 0 0-.74 1.146c.019.04.05.066.074.1.037.051.068.108.116.148l.004.004 2.97 2.492c-.003.038-.017.069-.017.11 0 .13.026.246.072.35.017.038.046.065.068.099a.771.771 0 0 0 .125.16c.007.006.01.016.016.021l3.012 2.528c-.002.02-.012.04-.012.06 0 .01.005.02.006.03l-8.418-7.065c-.036-.03-.076-.049-.115-.072-.026-.016-.05-.033-.077-.045a.653.653 0 0 0-.271-.066c-.5 0-.813.312-.813.812 0 .126.027.237.073.334.018.04.05.066.074.1.036.051.068.108.115.148l.004.004 2.95 2.475c-.008.043-.028.079-.028.127 0 .128.029.243.076.345.017.037.047.061.068.094.04.06.077.12.13.166.003.003.005.009.01.012l2.956 2.48c-.006.04-.021.08-.021.121 0 .108.03.213.078.31.013.028.036.05.053.075a.863.863 0 0 0 .142.18c.01.008.014.021.024.03l3.015 2.528c-.011.053-.031.104-.031.159a.94.94 0 0 0 .066.351c.014.034.038.058.055.088a.685.685 0 0 0 .125.172c.007.006.009.016.016.021l2.972 2.495c-.001.013-.007.025-.008.039l-8.35-7.004-.046-.041c-.047-.04-.1-.064-.15-.094-.03-.017-.055-.04-.084-.053a.695.695 0 0 0-.284-.068c-.4 0-.812.412-.812.812 0 .104.03.206.078.301.018.036.048.064.072.098.04.057.08.113.133.16l.016.02 2.959 2.482a.834.834 0 0 0-.04.22c0 .11.032.22.083.323.015.03.038.055.056.084.043.067.089.13.147.183.012.012.018.029.031.04l2.98 2.5c-.002.031-.015.056-.015.09 0 .127.022.239.06.337.018.045.05.076.075.114.03.047.058.099.1.136.004.005.006.012.011.016l3 2.517c-.01.054-.027.106-.027.16 0 .11.031.22.082.323.015.03.038.055.056.084.043.067.089.13.147.183.012.012.018.029.031.04l2.906 2.439c-.004.016-.009.032-.011.049l-8.38-7.031c-.037-.032-.088-.05-.132-.073-.034-.018-.062-.041-.1-.054a.959.959 0 0 0-.318-.053c-.5 0-.781.412-.781.812 0 .108.03.213.078.31.013.028.036.05.053.075a.863.863 0 0 0 .142.18c.01.008.014.021.024.03l3 2.515v.002c-.003.025-.016.05-.016.076a.81.81 0 0 0 .07.318c.015.034.04.062.059.094a.8.8 0 0 0 .133.176c.012.012.017.03.03.04l2.962 2.485c-.016.066-.035.132-.035.2 0 .13.027.244.072.343.009.019.023.031.033.049a.72.72 0 0 0 .15.195c.004.003.005.007.008.01l2.948 2.473c-.005.028-.015.052-.016.082 0 .01-.006.017-.006.027l-8.314-6.977-.03-.025c-.04-.034-.093-.052-.142-.076-.033-.016-.06-.04-.096-.053a1.041 1.041 0 0 0-.326-.049c-.5 0-.781.382-.781.782 0 .11.031.219.082.322.015.03.038.055.056.084.043.067.089.13.147.183.012.012.018.029.031.04l2.97 2.492a.81.81 0 0 0 .065.29c.015.035.04.062.059.094a.8.8 0 0 0 .133.176c.012.012.017.03.03.041l2.958 2.48c-.013.067-.031.129-.031.204 0 .13.026.247.072.35.017.038.046.065.068.1a.771.771 0 0 0 .125.16c.007.005.01.015.016.02l2.928 2.458c-.005.035-.022.062-.022.1 0 .015.007.027.008.042l-8.396-7.047c-.034-.028-.077-.043-.116-.066-.03-.018-.058-.039-.092-.053a.807.807 0 0 0-.31-.064c-.5 0-.781.412-.781.812 0 .13.027.245.072.344.009.019.023.031.033.049a.72.72 0 0 0 .15.195c.004.003.005.007.008.01l3.028 2.541c-.001.017-.01.032-.01.049a.81.81 0 0 0 .07.318c.015.034.04.062.059.094a.8.8 0 0 0 .133.176c.012.012.017.03.03.04l2.94 2.468c-.002.032-.013.057-.013.091 0 .131.026.247.072.35.017.038.046.065.068.1a.771.771 0 0 0 .125.16c.007.006.01.016.016.021l2.947 2.473c-.017.069-.04.135-.04.209 0 .108.031.215.083.316.017.034.045.06.067.092a.948.948 0 0 0 .144.176c.01.009.015.022.026.031l30.814 25.858zm-2.092.935a60 60 0 0 0 2.072-.928l-36.197-30.373c-.049-.04-.105-.068-.16-.097-.023-.013-.043-.03-.066-.04a.728.728 0 0 0-.286-.064c-.5 0-.812.281-.812.781a.94.94 0 0 0 .066.352c.014.034.038.057.055.088a.685.685 0 0 0 .125.172c.007.006.009.015.016.021l2.982 2.502c-.009.06-.025.115-.025.178 0 .11.032.217.082.32.017.036.042.063.064.096a.917.917 0 0 0 .139.174c.012.011.018.028.031.039l31.914 26.779zm-2.187.805a60 60 0 0 0 1.52-.506 60 60 0 0 0 .251-.113l-33.728-28.303c-.04-.034-.087-.054-.131-.08-.03-.018-.056-.037-.086-.051a.686.686 0 0 0-.276-.066c-.5 0-.812.312-.812.812a.92.92 0 0 0 .06.34c.016.04.047.067.069.101.032.052.06.107.105.147.005.004.007.011.012.016l33.016 27.703z"/><path fill="#fff" d="M38.085 951.888c-.5 0-.812.382-.812.782 0 .5.412.812.812.812.4 0 .782-.412.782-.812 0-.4-.382-.782-.782-.782zm0 3.188c-.5 0-.812.312-.812.812s.412.782.812.782c.4 0 .782-.382.782-.782s-.382-.812-.782-.812zm3.188 0a.81.81 0 0 0-.813.812c0 .5.413.782.813.782.5 0 .906-.382.906-.782s-.506-.812-.906-.812zm3.187 0c-.5 0-.78.312-.78.812s.38.782.78.782c.5 0 .813-.382.813-.782a.81.81 0 0 0-.813-.812zm3.313 0c-.5 0-.813.312-.813.812s.313.782.813.782c.5 0 .812-.282.812-.782 0-.4-.412-.812-.812-.812zm0 3.187c-.5 0-.813.313-.813.813 0 .5.313.812.813.812a.81.81 0 0 0 .812-.812c0-.4-.412-.813-.812-.813zm-13 .125c-.5 0-.813.282-.813.782s.313.812.813.812a.81.81 0 0 0 .812-.812c0-.4-.312-.782-.812-.782zm3.312 0c-.5 0-.812.282-.812.782s.412.812.812.812c.4 0 .782-.412.782-.812 0-.4-.382-.782-.782-.782zm3.188 0c-.4 0-.813.282-.813.782s.413.812.813.812c.5 0 .906-.412.906-.812 0-.4-.506-.782-.906-.782zm3.187 0c-.5 0-.78.282-.78.782s.38.812.78.812a.81.81 0 0 0 .813-.812c0-.4-.313-.782-.813-.782zm6.5 0c-.5 0-.78.282-.78.782s.38.812.78.812.813-.412.813-.812c0-.4-.413-.782-.813-.782zm3.22 0c-.4 0-.813.282-.813.782s.412.812.812.812c.5 0 .781-.412.781-.812 0-.4-.28-.782-.78-.782zm-19.407 3.188a.81.81 0 0 0-.813.812c0 .5.313.875.813.875.5 0 .812-.375.812-.875a.81.81 0 0 0-.812-.812zm3.312 0a.81.81 0 0 0-.812.812c0 .5.412.875.812.875.4 0 .782-.375.782-.875 0-.4-.382-.812-.782-.812zm3.188 0c-.4 0-.813.412-.813.812 0 .5.413.875.813.875.5 0 .906-.375.906-.875-.1-.4-.506-.812-.906-.812zm3.187 0c-.5 0-.78.412-.78.812 0 .5.38.875.78.875.5 0 .813-.375.813-.875a.81.81 0 0 0-.813-.812zm3.313 0a.81.81 0 0 0-.813.812c0 .4.313.782.813.782.5 0 .812-.382.812-.782a.81.81 0 0 0-.812-.812zm3.187 0c-.5 0-.78.412-.78.812 0 .5.38.782.78.782s.813-.382.813-.782-.413-.812-.813-.812zm3.22 0c-.4 0-.813.412-.813.812 0 .5.412.782.812.782.5 0 .781-.382.781-.782s-.28-.812-.78-.812zm-19.407 3.187a.81.81 0 0 0-.813.813c0 .4.313.812.813.812.5 0 .812-.312.812-.812s-.312-.813-.812-.813zm3.312 0a.81.81 0 0 0-.812.813c0 .4.412.812.812.812.4 0 .782-.312.782-.812s-.382-.813-.782-.813zm3.188 0c-.4 0-.813.413-.813.813 0 .4.413.812.813.812.5 0 .906-.312.906-.812s-.506-.813-.906-.813zm3.187 0c-.5 0-.78.413-.78.813 0 .4.38.812.78.812.5 0 .813-.312.813-.812s-.313-.813-.813-.813zm3.313 0a.81.81 0 0 0-.813.813c0 .5.313.812.813.812a.81.81 0 0 0 .812-.812c0-.4-.412-.813-.812-.813zm3.187 0c-.5 0-.78.313-.78.813 0 .5.38.812.78.812a.81.81 0 0 0 .813-.812.81.81 0 0 0-.813-.813zm3.22 0a.81.81 0 0 0-.813.813c0 .5.412.812.812.812.5 0 .781-.312.781-.812s-.28-.813-.78-.813zm-12.907 3.313a.81.81 0 0 0-.813.812c0 .5.413.782.813.782.5 0 .906-.282.906-.782s-.506-.812-.906-.812zm3.187 0c-.5 0-.78.312-.78.812s.38.782.78.782c.5 0 .813-.282.813-.782s-.313-.812-.813-.812zm3.313 0c-.5 0-.813.312-.813.812s.313.782.813.782c.5 0 .812-.282.812-.782a.81.81 0 0 0-.812-.812zm3.187 0c-.5 0-.78.312-.78.812s.38.782.78.782.813-.282.813-.782a.81.81 0 0 0-.813-.812zm3.22 0a.81.81 0 0 0-.813.812c0 .5.412.782.812.782.5 0 .781-.282.781-.782s-.28-.812-.78-.812zm-16.095 3.187a.81.81 0 0 0-.812.813c0 .4.412.812.812.812.4 0 .782-.412.782-.812 0-.4-.382-.813-.782-.813zm3.188 0c-.4 0-.813.413-.813.813 0 .4.413.812.813.812.5 0 .906-.412.906-.812-.1-.4-.506-.813-.906-.813zm3.187 0c-.5 0-.78.413-.78.813 0 .4.38.812.78.812a.81.81 0 0 0 .813-.812.81.81 0 0 0-.813-.813zm3.313 0c-.5 0-.813.313-.813.813 0 .4.313.812.813.812a.81.81 0 0 0 .812-.812.81.81 0 0 0-.812-.813zm3.187 0c-.5 0-.78.413-.78.813 0 .4.38.812.78.812s.813-.412.813-.812c0-.4-.413-.813-.813-.813zm3.22 0c-.4 0-.813.413-.813.813 0 .4.412.812.812.812.5 0 .781-.412.781-.812 0-.4-.28-.813-.78-.813zm3.28 0c-.5 0-.78.413-.78.813 0 .4.28.812.78.812a.81.81 0 0 0 .813-.812c0-.4-.413-.813-.813-.813zm3.22 0a.81.81 0 0 0-.813.813c0 .4.412.812.812.812.4 0 .781-.412.781-.812 0-.4-.38-.813-.78-.813zm3.187 0c-.5 0-.782.413-.782.813 0 .4.382.812.782.812s.812-.412.812-.812a.81.81 0 0 0-.812-.813zm3.218 0c-.4 0-.812.413-.812.813 0 .4.412.812.812.812.5 0 .782-.412.782-.812.1-.4-.282-.813-.782-.813zm3.282 0c-.5 0-.782.413-.782.813 0 .4.382.812.782.812s.812-.412.812-.812a.81.81 0 0 0-.812-.813zm3.218 0a.81.81 0 0 0-.812.813c0 .4.412.812.812.812.4 0 .782-.412.782-.812 0-.4-.282-.813-.782-.813zm3.188 0c-.4 0-.813.413-.813.813 0 .4.413.812.813.812a.81.81 0 0 0 .812-.812c.1-.4-.312-.813-.812-.813zm3.312 0c-.4 0-.812.413-.812.813 0 .4.412.812.812.812.5 0 .782-.412.782-.812 0-.4-.382-.813-.782-.813zm3.188 0a.81.81 0 0 0-.813.813c0 .4.413.812.813.812.4 0 .812-.412.812-.812a.81.81 0 0 0-.812-.813zm3.312 0c-.5 0-.812.313-.812.813 0 .4.412.812.812.812.4 0 .782-.412.782-.812-.1-.5-.382-.813-.782-.813zm-38.812 3.22c-.5 0-.813.38-.813.78 0 .5.313.813.813.813a.81.81 0 0 0 .812-.813c0-.4-.412-.78-.812-.78zm38.812 0c-.5 0-.812.38-.812.78 0 .5.412.813.812.813.4 0 .782-.413.782-.813-.1-.4-.382-.78-.782-.78zm3.188 0c-.4 0-.813.38-.813.78 0 .5.413.813.813.813a.81.81 0 0 0 .812-.813c0-.4-.412-.78-.812-.78zm-55 .093a.81.81 0 0 0-.813.813c0 .5.313.78.813.78.5 0 .812-.28.812-.78s-.312-.813-.812-.813zm3.312 0a.81.81 0 0 0-.812.813c0 .5.412.78.812.78.4 0 .782-.28.782-.78s-.382-.813-.782-.813zm3.188 0c-.4 0-.813.413-.813.813 0 .5.413.78.813.78.5 0 .906-.28.906-.78-.1-.5-.506-.813-.906-.813zm3.187 0c-.5 0-.78.413-.78.813 0 .5.38.78.78.78.5 0 .813-.28.813-.78s-.313-.813-.813-.813zm6.5 0c-.5 0-.78.413-.78.813 0 .5.38.78.78.78s.813-.38.813-.78a.81.81 0 0 0-.813-.813zm3.22 0c-.4 0-.813.413-.813.813 0 .5.412.78.812.78.5 0 .781-.38.781-.78 0-.5-.28-.813-.78-.813zm3.28 0c-.5 0-.78.413-.78.813 0 .5.28.78.78.78s.813-.38.813-.78a.81.81 0 0 0-.813-.813zm3.22 0a.81.81 0 0 0-.813.813c0 .5.412.78.812.78.4 0 .781-.38.781-.78 0-.5-.38-.813-.78-.813zm3.187 0c-.5 0-.782.413-.782.813 0 .5.382.78.782.78s.812-.38.812-.78c0-.5-.312-.813-.812-.813zm3.218 0c-.4 0-.812.413-.812.813 0 .5.412.78.812.78.5 0 .782-.38.782-.78.1-.5-.282-.813-.782-.813zm3.282 0c-.5 0-.782.413-.782.813 0 .5.382.78.782.78s.812-.38.812-.78c0-.5-.312-.813-.812-.813zm3.218 0a.81.81 0 0 0-.812.813c0 .5.412.78.812.78.4 0 .782-.38.782-.78 0-.5-.282-.813-.782-.813zm3.188 0c-.4 0-.813.413-.813.813 0 .5.413.78.813.78.5 0 .812-.38.812-.78.1-.5-.312-.813-.812-.813zm3.312 0c-.4 0-.812.413-.812.813 0 .5.412.78.812.78.5 0 .782-.38.782-.78 0-.5-.382-.813-.782-.813zm3.188 0a.81.81 0 0 0-.813.813c0 .5.413.78.813.78.4 0 .812-.38.812-.78 0-.5-.312-.813-.812-.813zm-51.688 3.094a.81.81 0 0 0-.812.812c0 .4.312.782.812.782s.782-.282.782-.782-.282-.812-.782-.812zm3.188 0a.81.81 0 0 0-.813.812c0 .4.313.782.813.782.5 0 .812-.282.812-.782s-.312-.812-.812-.812zm3.312 0a.81.81 0 0 0-.812.812c0 .4.412.782.812.782.4 0 .782-.282.782-.782s-.382-.812-.782-.812zm3.188 0c-.4 0-.813.412-.813.812 0 .4.413.782.813.782.5 0 .906-.282.906-.782s-.506-.812-.906-.812zm3.187 0c-.5 0-.78.412-.78.812 0 .4.38.782.78.782.5 0 .813-.282.813-.782s-.313-.812-.813-.812zm3.313 0a.81.81 0 0 0-.813.812c0 .5.313.782.813.782.5 0 .812-.282.812-.782 0-.4-.412-.812-.812-.812zm3.187 0c-.5 0-.78.412-.78.812 0 .4.38.782.78.782s.813-.282.813-.782a.81.81 0 0 0-.813-.812zm3.22 0c-.4 0-.813.412-.813.812 0 .4.412.782.812.782.5 0 .781-.282.781-.782s-.28-.812-.78-.812zm3.28 0c-.5 0-.78.412-.78.812 0 .4.28.782.78.782s.813-.282.813-.782a.81.81 0 0 0-.813-.812zm3.22 0a.81.81 0 0 0-.813.812c0 .4.412.782.812.782.4 0 .781-.282.781-.782s-.38-.812-.78-.812zm3.187 0c-.5 0-.782.412-.782.812 0 .4.382.782.782.782s.812-.282.812-.782-.312-.812-.812-.812zm3.218 0c-.4 0-.812.412-.812.812 0 .4.412.782.812.782.5 0 .782-.282.782-.782s-.282-.812-.782-.812zm3.282 0c-.5 0-.782.412-.782.812 0 .4.382.782.782.782s.812-.282.812-.782-.312-.812-.812-.812zm3.218 0a.81.81 0 0 0-.812.812c0 .4.412.782.812.782.4 0 .782-.282.782-.782s-.282-.812-.782-.812zm3.188 0c-.4 0-.813.412-.813.812 0 .4.413.782.813.782.5 0 .812-.282.812-.782s-.312-.812-.812-.812zm3.312 0c-.4 0-.812.412-.812.812 0 .4.412.782.812.782.5 0 .782-.282.782-.782s-.382-.812-.782-.812zm3.188 0a.81.81 0 0 0-.813.812c0 .4.413.782.813.782.4 0 .812-.282.812-.782s-.312-.812-.812-.812zm3.312 0a.81.81 0 0 0-.812.812c0 .5.412.782.812.782.4 0 .782-.282.782-.782-.1-.4-.382-.812-.782-.812zm-51.812 3.312c-.5 0-.813.382-.813.782s.313.812.813.812c.5 0 .812-.312.812-.812s-.312-.782-.812-.782zm3.312 0c-.5 0-.812.382-.812.782s.412.812.812.812c.4 0 .782-.312.782-.812s-.382-.782-.782-.782zm3.188 0c-.4 0-.813.382-.813.782s.413.812.813.812c.5 0 .906-.312.906-.812s-.506-.782-.906-.782zm3.187 0c-.5 0-.78.382-.78.782s.38.812.78.812c.5 0 .813-.312.813-.812s-.313-.782-.813-.782zm3.313 0c-.5 0-.813.382-.813.782s.313.812.813.812c.5 0 .812-.312.812-.812s-.412-.782-.812-.782zm3.187 0c-.5 0-.78.282-.78.782s.38.812.78.812a.81.81 0 0 0 .813-.812c0-.5-.413-.782-.813-.782zm3.22 0c-.4 0-.813.282-.813.782s.412.812.812.812c.5 0 .781-.312.781-.812s-.28-.782-.78-.782zm3.28 0c-.5 0-.78.282-.78.782s.28.812.78.812.813-.312.813-.812-.413-.782-.813-.782zm3.22 0c-.5 0-.813.282-.813.782s.412.812.812.812c.4 0 .781-.312.781-.812s-.38-.782-.78-.782zm3.187 0c-.5 0-.782.282-.782.782s.382.812.782.812a.81.81 0 0 0 .812-.812c0-.5-.312-.782-.812-.782zm3.218 0c-.4 0-.812.282-.812.782s.412.812.812.812c.5 0 .782-.312.782-.812s-.282-.782-.782-.782zm3.282 0c-.5 0-.782.282-.782.782s.382.812.782.812a.81.81 0 0 0 .812-.812c0-.5-.312-.782-.812-.782zm3.218 0c-.5 0-.812.282-.812.782s.412.812.812.812c.4 0 .782-.312.782-.812s-.282-.782-.782-.782zm3.188 0c-.4 0-.813.282-.813.782s.413.812.813.812c.5 0 .812-.312.812-.812s-.312-.782-.812-.782zm3.312 0c-.4 0-.812.282-.812.782s.412.812.812.812c.5 0 .782-.312.782-.812s-.382-.782-.782-.782zm3.188 0c-.5 0-.813.282-.813.782s.413.812.813.812a.81.81 0 0 0 .812-.812c0-.5-.312-.782-.812-.782zm3.312 0c-.5 0-.812.282-.812.782s.412.812.812.812c.4 0 .782-.312.782-.812s-.382-.782-.782-.782zm-48.5 3.188a.81.81 0 0 0-.812.812c0 .4.412.782.812.782.4 0 .782-.382.782-.782s-.382-.812-.782-.812zm3.188 0c-.4 0-.813.412-.813.812 0 .4.413.782.813.782.5 0 .906-.382.906-.782-.1-.4-.506-.812-.906-.812zm3.187 0c-.5 0-.78.412-.78.812 0 .4.38.782.78.782.5 0 .813-.382.813-.782a.81.81 0 0 0-.813-.812zm3.313 0a.81.81 0 0 0-.813.812c0 .4.313.782.813.782.5 0 .812-.382.812-.782s-.412-.812-.812-.812zm3.187 0c-.5 0-.78.412-.78.812 0 .4.38.782.78.782s.813-.382.813-.782-.413-.812-.813-.812zm3.22 0c-.4 0-.813.412-.813.812 0 .4.412.782.812.782.5 0 .781-.382.781-.782s-.28-.812-.78-.812zm3.28 0c-.5 0-.78.412-.78.812 0 .4.28.782.78.782s.813-.382.813-.782-.413-.812-.813-.812zm3.22 0a.81.81 0 0 0-.813.812c0 .4.412.782.812.782.4 0 .781-.382.781-.782s-.38-.812-.78-.812zm3.187 0c-.5 0-.782.412-.782.812 0 .4.382.782.782.782s.812-.382.812-.782a.81.81 0 0 0-.812-.812zm3.218 0c-.4 0-.812.412-.812.812 0 .4.412.782.812.782.5 0 .782-.382.782-.782.1-.4-.282-.812-.782-.812zm3.282 0c-.5 0-.782.412-.782.812 0 .4.382.782.782.782s.812-.382.812-.782a.81.81 0 0 0-.812-.812zm3.218 0a.81.81 0 0 0-.812.812c0 .4.412.782.812.782.4 0 .782-.382.782-.782s-.282-.812-.782-.812zm3.188 0c-.4 0-.813.412-.813.812 0 .4.413.782.813.782.5 0 .812-.382.812-.782.1-.4-.312-.812-.812-.812zm3.312 0c-.4 0-.812.412-.812.812 0 .4.412.782.812.782.5 0 .782-.382.782-.782s-.382-.812-.782-.812zm3.188 0a.81.81 0 0 0-.813.812c0 .4.413.782.813.782.4 0 .812-.382.812-.782a.81.81 0 0 0-.812-.812zm-35.5 3.219c-.5 0-.813.38-.813.78 0 .5.313.813.813.813a.81.81 0 0 0 .812-.812c0-.4-.412-.781-.812-.781zm-6.5.094c-.4 0-.813.28-.813.78s.413.813.813.813c.5 0 .906-.312.906-.812s-.506-.781-.906-.781zm3.187 0c-.5 0-.78.28-.78.78s.38.813.78.813c.5 0 .813-.312.813-.812s-.313-.781-.813-.781zm6.5 0c-.5 0-.78.28-.78.78s.38.813.78.813a.81.81 0 0 0 .813-.812c0-.5-.413-.781-.813-.781zm3.22 0c-.4 0-.813.28-.813.78s.412.813.812.813c.5 0 .781-.312.781-.812s-.28-.781-.78-.781zm3.28 0c-.5 0-.78.28-.78.78s.28.813.78.813.813-.312.813-.812-.413-.781-.813-.781zm3.22 0c-.5 0-.813.28-.813.78s.412.813.812.813c.4 0 .781-.312.781-.812s-.38-.781-.78-.781zm3.187 0c-.5 0-.782.28-.782.78s.382.813.782.813a.81.81 0 0 0 .812-.812c0-.5-.312-.781-.812-.781zm3.218 0c-.4 0-.812.28-.812.78s.412.813.812.813c.5 0 .782-.312.782-.812s-.282-.781-.782-.781zm3.282 0c-.5 0-.782.28-.782.78s.382.813.782.813a.81.81 0 0 0 .812-.812c0-.5-.312-.781-.812-.781zm3.218 0c-.5 0-.812.28-.812.78s.412.813.812.813c.4 0 .782-.312.782-.812s-.282-.781-.782-.781zm3.188 0c-.4 0-.813.28-.813.78s.413.813.813.813c.5 0 .812-.312.812-.812s-.312-.781-.812-.781zm3.312 0c-.4 0-.812.28-.812.78s.412.813.812.813c.5 0 .782-.312.782-.812s-.382-.781-.782-.781zm-32.312 3.094c-.5 0-.813.312-.813.812s.313.781.813.781c.5 0 .812-.281.812-.781a.81.81 0 0 0-.812-.812zm-9.688.094c-.5 0-.812.312-.812.812s.412.781.812.781c.4 0 .782-.381.782-.781s-.382-.812-.782-.812zm3.188 0a.81.81 0 0 0-.813.812c0 .5.413.781.813.781.5 0 .906-.381.906-.781s-.506-.812-.906-.812zm3.187 0c-.5 0-.78.312-.78.812s.38.781.78.781c.5 0 .813-.381.813-.781a.81.81 0 0 0-.813-.812zm6.5 0c-.5 0-.78.312-.78.812s.38.781.78.781.813-.381.813-.781-.413-.812-.813-.812zm3.22 0a.81.81 0 0 0-.813.812c0 .5.412.781.812.781.5 0 .781-.381.781-.781s-.28-.812-.78-.812zm3.28 0c-.5 0-.78.312-.78.812s.28.781.78.781.813-.381.813-.781-.413-.812-.813-.812zm3.22 0c-.5 0-.813.312-.813.812s.412.781.812.781c.4 0 .781-.381.781-.781s-.38-.812-.78-.812zm3.187 0c-.5 0-.782.312-.782.812s.382.781.782.781.812-.381.812-.781a.81.81 0 0 0-.812-.812zm3.218 0a.81.81 0 0 0-.812.812c0 .5.412.781.812.781.5 0 .782-.381.782-.781s-.282-.812-.782-.812zm3.282 0c-.5 0-.782.312-.782.812s.382.781.782.781.812-.381.812-.781a.81.81 0 0 0-.812-.812zm3.218 0c-.5 0-.812.312-.812.812s.412.781.812.781c.4 0 .782-.381.782-.781s-.282-.812-.782-.812zm9.688 0c-.5 0-.813.312-.813.812s.413.781.813.781c.4 0 .812-.381.812-.781a.81.81 0 0 0-.812-.812zm-42 3.218c-.4 0-.813.282-.813.782s.413.812.813.812c.5 0 .906-.412.906-.812 0-.4-.506-.782-.906-.782zm3.187 0c-.5 0-.78.282-.78.782s.38.812.78.812a.81.81 0 0 0 .813-.812c0-.4-.313-.782-.813-.782zm3.313 0c-.5 0-.813.282-.813.782s.313.812.813.812a.81.81 0 0 0 .812-.812c0-.4-.412-.782-.812-.782zm3.187 0c-.5 0-.78.382-.78.782s.38.812.78.812.813-.412.813-.812c0-.4-.413-.782-.813-.782zm3.22 0c-.4 0-.813.382-.813.782s.412.812.812.812c.5 0 .781-.412.781-.812 0-.4-.28-.782-.78-.782zm3.28 0c-.5 0-.78.382-.78.782s.28.812.78.812a.81.81 0 0 0 .813-.812c0-.4-.413-.782-.813-.782zm3.22 0c-.5 0-.813.382-.813.782s.412.812.812.812c.4 0 .781-.412.781-.812 0-.4-.38-.782-.78-.782zm3.187 0c-.5 0-.782.382-.782.782s.382.812.782.812.812-.412.812-.812c0-.4-.312-.782-.812-.782zm3.218 0c-.4 0-.812.382-.812.782s.412.812.812.812c.5 0 .782-.412.782-.812.1-.4-.282-.782-.782-.782zm3.282 0c-.5 0-.782.382-.782.782s.382.812.782.812.812-.412.812-.812c0-.4-.312-.782-.812-.782zm3.218 0c-.5 0-.812.382-.812.782s.412.812.812.812c.4 0 .782-.412.782-.812 0-.4-.282-.782-.782-.782zm9.688 0c-.5 0-.813.382-.813.782s.413.812.813.812c.4 0 .812-.412.812-.812 0-.4-.312-.782-.812-.782zm3.312 0c-.5 0-.812.382-.812.782s.412.812.812.812c.4 0 .782-.312.782-.812s-.382-.782-.782-.782zm-45.312 3.188c-.4 0-.813.412-.813.812 0 .4.413.782.813.782.5 0 .906-.382.906-.782-.1-.4-.506-.812-.906-.812zm3.187 0c-.5 0-.78.412-.78.812 0 .4.38.782.78.782.5 0 .813-.382.813-.782a.81.81 0 0 0-.813-.812zm3.313 0a.81.81 0 0 0-.813.812c0 .4.313.782.813.782.5 0 .812-.382.812-.782s-.412-.812-.812-.812zm3.187 0c-.5 0-.78.412-.78.812 0 .5.38.782.78.782s.813-.382.813-.782-.413-.812-.813-.812zm3.22 0c-.4 0-.813.412-.813.812 0 .5.412.782.812.782.5 0 .781-.382.781-.782s-.28-.812-.78-.812zm3.28 0c-.5 0-.78.412-.78.812 0 .5.28.782.78.782s.813-.382.813-.782-.413-.812-.813-.812zm3.22 0a.81.81 0 0 0-.813.812c0 .5.412.782.812.782.4 0 .781-.382.781-.782s-.38-.812-.78-.812zm3.187 0c-.5 0-.782.412-.782.812 0 .5.382.782.782.782s.812-.382.812-.782a.81.81 0 0 0-.812-.812zm3.218 0c-.4 0-.812.412-.812.812 0 .5.412.782.812.782.5 0 .782-.382.782-.782.1-.4-.282-.812-.782-.812zm3.282 0c-.5 0-.782.412-.782.812 0 .5.382.782.782.782s.812-.382.812-.782a.81.81 0 0 0-.812-.812zm3.218 0a.81.81 0 0 0-.812.812c0 .5.412.782.812.782.4 0 .782-.382.782-.782s-.282-.812-.782-.812zm3.188 0c-.4 0-.813.412-.813.812 0 .5.413.782.813.782.5 0 .812-.382.812-.782.1-.4-.312-.812-.812-.812zm3.312 0c-.4 0-.812.412-.812.812 0 .5.412.782.812.782.5 0 .782-.382.782-.782s-.382-.812-.782-.812zm3.188 0a.81.81 0 0 0-.813.812c0 .5.413.782.813.782.4 0 .812-.382.812-.782a.81.81 0 0 0-.812-.812zm3.312 0c-.5 0-.812.406-.812.906 0 .4.412.781.812.781.4 0 .782-.381.782-.781-.1-.5-.382-.906-.782-.906zm-42.125 3.312c-.5 0-.78.382-.78.782s.38.812.78.812c.5 0 .813-.312.813-.812s-.313-.782-.813-.782zm3.313 0c-.5 0-.813.382-.813.782 0 .5.313.812.813.812a.81.81 0 0 0 .812-.812c0-.5-.412-.782-.812-.782zm3.187 0c-.5 0-.78.382-.78.782s.38.812.78.812a.81.81 0 0 0 .813-.812c0-.5-.413-.782-.813-.782zm3.22 0c-.4 0-.813.382-.813.782s.412.812.812.812c.5 0 .781-.312.781-.812s-.28-.782-.78-.782zm3.28 0c-.5 0-.78.382-.78.782s.28.812.78.812.813-.312.813-.812-.413-.782-.813-.782zm3.22 0c-.5 0-.813.382-.813.782s.412.812.812.812c.4 0 .781-.312.781-.812s-.38-.782-.78-.782zm3.187 0c-.5 0-.782.382-.782.782s.382.812.782.812a.81.81 0 0 0 .812-.812c0-.5-.312-.782-.812-.782zm3.218 0c-.4 0-.812.382-.812.782s.412.812.812.812c.5 0 .782-.312.782-.812s-.282-.782-.782-.782zm3.282 0c-.5 0-.782.382-.782.782s.382.812.782.812a.81.81 0 0 0 .812-.812c0-.5-.312-.782-.812-.782zm3.218 0c-.5 0-.812.382-.812.782s.412.812.812.812c.4 0 .782-.312.782-.812s-.282-.782-.782-.782zm3.188 0c-.4 0-.813.382-.813.782s.413.812.813.812c.5 0 .812-.312.812-.812s-.312-.782-.812-.782zm3.312 0c-.4 0-.812.382-.812.782s.412.812.812.812c.5 0 .782-.312.782-.812s-.382-.782-.782-.782zm3.188 0c-.5 0-.813.382-.813.782s.413.812.813.812a.81.81 0 0 0 .812-.812c0-.5-.312-.782-.812-.782zm3.312 0c-.5 0-.812.382-.812.782s.412.812.812.812c.4 0 .782-.312.782-.812s-.382-.782-.782-.782zm-42.125 3.188c-.5 0-.78.412-.78.812 0 .4.38.782.78.782.5 0 .813-.282.813-.782s-.313-.812-.813-.812zm3.313 0c-.5 0-.813.312-.813.812s.313.782.813.782c.5 0 .812-.382.812-.782s-.412-.812-.812-.812zm3.187 0c-.5 0-.78.412-.78.812 0 .4.38.782.78.782s.813-.282.813-.782a.81.81 0 0 0-.813-.812zm3.22 0c-.4 0-.813.412-.813.812 0 .4.412.782.812.782.5 0 .781-.282.781-.782s-.28-.812-.78-.812zm3.28 0c-.5 0-.78.412-.78.812 0 .4.28.782.78.782s.813-.282.813-.782a.81.81 0 0 0-.813-.812zm3.22 0a.81.81 0 0 0-.813.812c0 .4.412.782.812.782.4 0 .781-.282.781-.782s-.38-.812-.78-.812zm3.187 0c-.5 0-.782.412-.782.812 0 .4.382.782.782.782s.812-.282.812-.782-.312-.812-.812-.812zm3.218 0c-.4 0-.812.412-.812.812 0 .4.412.782.812.782.5 0 .782-.282.782-.782s-.282-.812-.782-.812zm3.282 0c-.5 0-.782.412-.782.812 0 .4.382.782.782.782s.812-.282.812-.782-.312-.812-.812-.812zm3.218 0a.81.81 0 0 0-.812.812c0 .4.412.782.812.782.4 0 .782-.282.782-.782s-.282-.812-.782-.812zm3.188 0c-.4 0-.813.412-.813.812 0 .4.413.782.813.782.5 0 .812-.282.812-.782s-.312-.812-.812-.812zm3.312 0c-.4 0-.812.412-.812.812 0 .4.412.782.812.782.5 0 .782-.282.782-.782s-.382-.812-.782-.812zm3.188 0a.81.81 0 0 0-.813.812c0 .4.413.782.813.782.4 0 .812-.282.812-.782s-.312-.812-.812-.812zm3.312 0c-.5 0-.812.312-.812.812s.412.782.812.782c.4 0 .782-.282.782-.782s-.382-.812-.782-.812zm3.188 0a.81.81 0 0 0-.813.812c0 .5.413.782.813.782.5 0 .812-.282.812-.782a.81.81 0 0 0-.812-.812zm-42 3.187a.81.81 0 0 0-.813.813c0 .4.313.812.813.812a.81.81 0 0 0 .812-.812c0-.4-.412-.813-.812-.813zm-3.313.125c-.5 0-.78.382-.78.782s.38.812.78.812a.81.81 0 0 0 .813-.812c0-.5-.313-.782-.813-.782zm6.5 0c-.5 0-.78.382-.78.782s.38.812.78.812.813-.412.813-.812c0-.5-.413-.782-.813-.782zm3.22 0c-.4 0-.813.382-.813.782s.412.812.812.812c.5 0 .781-.412.781-.812 0-.5-.28-.782-.78-.782zm3.28 0c-.5 0-.78.382-.78.782s.28.812.78.812a.81.81 0 0 0 .813-.812c0-.5-.413-.782-.813-.782zm3.22 0c-.5 0-.813.382-.813.782s.412.812.812.812c.4 0 .781-.412.781-.812 0-.5-.38-.782-.78-.782zm3.187 0c-.5 0-.782.382-.782.782s.382.812.782.812.812-.412.812-.812c0-.5-.312-.782-.812-.782zm3.218 0c-.4 0-.812.382-.812.782s.412.812.812.812c.5 0 .782-.412.782-.812.1-.5-.282-.782-.782-.782zm3.282 0c-.5 0-.782.382-.782.782s.382.812.782.812.812-.412.812-.812c0-.5-.312-.782-.812-.782zm3.218 0c-.5 0-.812.382-.812.782s.412.812.812.812c.4 0 .782-.412.782-.812 0-.5-.282-.782-.782-.782zm3.188 0c-.4 0-.813.382-.813.782s.413.812.813.812a.81.81 0 0 0 .812-.812c.1-.5-.312-.782-.812-.782zm3.312 0c-.4 0-.812.382-.812.782s.412.812.812.812c.5 0 .782-.412.782-.812 0-.5-.382-.782-.782-.782zm3.188 0c-.5 0-.813.382-.813.782s.413.812.813.812c.4 0 .812-.412.812-.812 0-.5-.312-.782-.812-.782zm3.312 0c-.5 0-.812.282-.812.782 0 .4.412.812.812.812.4 0 .782-.412.782-.812-.1-.5-.382-.782-.782-.782zm3.188 0c-.4 0-.813.282-.813.782 0 .4.413.812.813.812a.81.81 0 0 0 .812-.812c0-.5-.412-.782-.812-.782zm-42 3.094c-.5 0-.813.381-.813.781s.313.813.813.813a.81.81 0 0 0 .812-.813c0-.4-.412-.781-.812-.781zm-3.313.094c-.5 0-.78.413-.78.813 0 .5.38.78.78.78.5 0 .813-.38.813-.78a.81.81 0 0 0-.813-.813zm6.5 0c-.5 0-.78.413-.78.813 0 .5.38.78.78.78s.813-.38.813-.78-.413-.813-.813-.813zm3.22 0c-.4 0-.813.413-.813.813 0 .5.412.78.812.78.5 0 .781-.38.781-.78s-.28-.813-.78-.813zm3.28 0c-.5 0-.78.413-.78.813 0 .5.28.78.78.78s.813-.38.813-.78-.413-.813-.813-.813zm3.22 0a.81.81 0 0 0-.813.813c0 .5.412.78.812.78.4 0 .781-.38.781-.78s-.38-.813-.78-.813zm3.187 0c-.5 0-.782.413-.782.813 0 .5.382.78.782.78s.812-.38.812-.78a.81.81 0 0 0-.812-.813zm3.218 0c-.4 0-.812.413-.812.813 0 .5.412.78.812.78.5 0 .782-.38.782-.78.1-.4-.282-.813-.782-.813zm3.282 0c-.5 0-.782.413-.782.813 0 .5.382.78.782.78s.812-.38.812-.78a.81.81 0 0 0-.812-.813zm3.218 0a.81.81 0 0 0-.812.813c0 .5.412.78.812.78.4 0 .782-.38.782-.78s-.282-.813-.782-.813zm3.188 0c-.4 0-.813.413-.813.813 0 .5.413.78.813.78.5 0 .812-.38.812-.78.1-.4-.312-.813-.812-.813zm3.312 0c-.4 0-.812.413-.812.813 0 .5.412.78.812.78.5 0 .782-.38.782-.78s-.382-.813-.782-.813zm3.188 0a.81.81 0 0 0-.813.813c0 .5.413.78.813.78.4 0 .812-.38.812-.78a.81.81 0 0 0-.812-.813zm3.312 0a.81.81 0 0 0-.812.813c0 .4.412.78.812.78.4 0 .782-.38.782-.78-.1-.5-.382-.813-.782-.813zm3.188 0c-.4 0-.813.413-.813.813 0 .4.413.78.813.78.5 0 .812-.38.812-.78a.81.81 0 0 0-.812-.813zm-42 3.188a.81.81 0 0 0-.813.812c0 .4.313.813.813.813.5 0 .812-.313.812-.813a.81.81 0 0 0-.812-.812zm3.187 0c-.5 0-.78.312-.78.812s.38.813.78.813a.81.81 0 0 0 .813-.813.81.81 0 0 0-.813-.812zm3.22 0a.81.81 0 0 0-.813.812c0 .5.412.813.812.813.5 0 .781-.313.781-.813 0-.5-.28-.812-.78-.812zm3.28 0c-.5 0-.78.312-.78.812s.28.813.78.813.813-.313.813-.813a.81.81 0 0 0-.813-.812zm3.22 0c-.5 0-.813.312-.813.812s.412.813.812.813c.4 0 .781-.313.781-.813 0-.5-.38-.812-.78-.812zm3.187 0c-.5 0-.782.312-.782.812s.382.813.782.813a.81.81 0 0 0 .812-.813c0-.5-.312-.812-.812-.812zm3.218 0a.81.81 0 0 0-.812.812c0 .5.412.813.812.813.5 0 .782-.313.782-.813 0-.5-.282-.812-.782-.812zm3.282 0c-.5 0-.782.312-.782.812s.382.813.782.813a.81.81 0 0 0 .812-.813c0-.5-.312-.812-.812-.812zm12.906 0c-.5 0-.813.312-.813.812s.413.813.813.813a.81.81 0 0 0 .812-.813c0-.5-.312-.812-.812-.812zm3.312 0c-.5 0-.812.312-.812.812s.412.813.812.813c.4 0 .782-.313.782-.813 0-.5-.382-.812-.782-.812zm3.188 0a.81.81 0 0 0-.813.812c0 .5.413.813.813.813.5 0 .812-.313.812-.813a.81.81 0 0 0-.812-.812zm-42 3.218c-.5 0-.813.282-.813.782s.313.812.813.812a.81.81 0 0 0 .812-.812c0-.4-.412-.782-.812-.782zm3.187 0c-.5 0-.78.282-.78.782s.38.812.78.812.813-.412.813-.812c0-.4-.413-.782-.813-.782zm3.22 0c-.4 0-.813.282-.813.782s.412.812.812.812c.5 0 .781-.412.781-.812 0-.4-.28-.782-.78-.782zm3.28 0c-.5 0-.78.282-.78.782s.28.812.78.812a.81.81 0 0 0 .813-.812c0-.4-.413-.782-.813-.782zm3.22 0c-.5 0-.813.282-.813.782s.412.812.812.812c.4 0 .781-.412.781-.812 0-.4-.38-.782-.78-.782zm3.187 0c-.5 0-.782.282-.782.782s.382.812.782.812.812-.412.812-.812c0-.4-.312-.782-.812-.782zm3.218 0c-.4 0-.812.282-.812.782s.412.812.812.812c.5 0 .782-.412.782-.812 0-.4-.282-.782-.782-.782zm16.188 0c-.5 0-.813.282-.813.782s.413.812.813.812c.4 0 .812-.412.812-.812 0-.4-.312-.782-.812-.782zm3.312 0c-.5 0-.812.382-.812.782s.412.812.812.812c.4 0 .782-.312.782-.812s-.382-.782-.782-.782zm3.188 0c-.4 0-.813.382-.813.782s.313.812.813.812c.5 0 .812-.312.812-.812s-.412-.782-.812-.782zm-42 3.188c-.5 0-.813.312-.813.812s.313.782.813.782c.5 0 .812-.382.812-.782s-.412-.812-.812-.812zm3.187 0c-.5 0-.78.406-.78.906 0 .4.38.813.78.813s.813-.413.813-.813c0-.5-.413-.906-.813-.906zm3.22 0c-.4 0-.813.406-.813.906 0 .4.412.813.812.813.5 0 .781-.413.781-.813 0-.5-.28-.906-.78-.906zm25.905 0c-.4 0-.812.406-.812.906 0 .4.412.813.812.813.5 0 .782-.413.782-.813 0-.5-.382-.906-.782-.906zm3.188 0c-.5 0-.813.406-.813.906 0 .4.413.813.813.813.4 0 .812-.413.812-.813 0-.5-.312-.906-.812-.906zm3.312 0a.81.81 0 0 0-.812.812c0 .4.412.782.812.782.4 0 .782-.382.782-.782-.1-.4-.382-.812-.782-.812zm3.188 0c-.4 0-.813.412-.813.812 0 .4.413.782.813.782.5 0 .812-.382.812-.782s-.412-.812-.812-.812zm-9.688 3.312c-.4 0-.812.382-.812.782 0 .5.412.812.812.812.5 0 .782-.412.782-.812 0-.4-.382-.782-.782-.782zm3.188 0c-.5 0-.813.382-.813.782 0 .5.413.812.813.812.4 0 .812-.412.812-.812 0-.4-.312-.782-.812-.782zm3.312 0c-.5 0-.812.382-.812.782 0 .5.412.812.812.812.4 0 .782-.412.782-.812-.1-.5-.382-.782-.782-.782zm3.188 0c-.4 0-.813.382-.813.782 0 .5.413.812.813.812a.81.81 0 0 0 .812-.812c0-.5-.412-.782-.812-.782zm-6.5 3.188a.81.81 0 0 0-.813.812c0 .4.413.782.813.782.4 0 .812-.282.812-.782s-.312-.812-.812-.812zm3.312 0c-.5 0-.812.312-.812.812s.412.782.812.782c.4 0 .782-.282.782-.782s-.382-.812-.782-.812zm3.188 0a.81.81 0 0 0-.813.812c0 .5.413.782.813.782.5 0 .812-.282.812-.782a.81.81 0 0 0-.812-.812zm3.187 0c-.5 0-.78.312-.78.812s.28.782.78.782.813-.282.813-.782a.81.81 0 0 0-.813-.812zm-6.375 3.219c-.5 0-.812.28-.812.78s.412.813.812.813c.4 0 .782-.412.782-.812 0-.4-.382-.781-.782-.781zm0 3.28a.81.81 0 0 0-.812.813c0 .4.412.782.812.782.4 0 .782-.382.782-.782-.1-.5-.382-.812-.782-.812z"/></g></svg>